<svg width="192" height="75" viewBox="0 0 192 75" fill="none" xmlns="http://www.w3.org/2000/svg">
<path d="M73.1875 48.4961C73.4219 47.1719 73.4609 45.3281 72.5391 43.5117C71.4063 41.2656 69.1992 39.7656 65.9883 39.0547C56.6016 36.9687 47.8281 32.7812 41.9141 27.5625C41.3242 27.043 40.6953 26.4414 40.0352 25.7734L41.1172 25.0312L33.625 14.0781L31.5312 15.5078C31.5039 15.4765 31.4805 15.4453 31.457 15.4101C29.0508 12.1367 24.4297 11.4258 21.1562 13.8281L6.90625 24.2773C3.58984 26.707 1.61328 30.6133 1.62109 34.7265L1.64062 48.5586C0.609375 50.0117 0 51.7851 0 53.6992C0 58.6054 3.99219 62.5976 8.89844 62.5976H51.1914C57.8789 62.5976 64.4492 61.4297 70.7266 59.125C73.2852 58.1875 75 55.7305 75 53.0078C75 51.3125 74.3477 49.7031 73.1875 48.4961ZM37.875 30.5L34.1875 36.4883L38.3516 39.0547L41.6836 33.6445C42.2266 34.043 42.7813 34.4336 43.3516 34.8164L40.0547 40.0351L44.1875 42.6484L47.5391 37.3515C48.1797 37.7031 48.8281 38.0429 49.4922 38.375L46.1875 43.6445L50.332 46.2422L53.9883 40.4101C57.4688 41.832 61.1563 42.9922 64.9258 43.8281C66.0938 44.0898 67.6055 44.625 68.1641 45.6992C68.2969 45.9492 68.3672 46.2187 68.4062 46.4883C68.0586 46.4922 67.7109 46.5234 67.3633 46.5859L67.3086 46.5976C66.5391 46.7305 65.8125 46.8594 65.0977 46.9453L55.8828 48.0117C49.8398 48.7148 43.7656 48.3867 37.832 47.039L34.4609 46.2734C30.5937 45.3945 26.6328 44.9062 22.6641 44.8164L15.6875 40.2695C14.918 39.7695 14.4609 38.9258 14.4609 38.0078C14.4609 36.9101 15.1172 35.9297 16.1367 35.5117L19.5312 34.1211L22.1797 37.9883L35.9414 28.5742C36.6094 29.2773 37.2539 29.9179 37.875 30.5ZM32.3477 20.875L34.3203 23.7578L23.4531 31.1875L21.4844 28.3086L32.3477 20.875ZM9.80078 28.2187L24.0469 17.7695C25.1406 16.9726 26.6719 17.1992 27.4883 18.2734L14.6836 27.0312L16.707 29.9922L14.2773 30.9883C11.418 32.1601 9.57031 34.918 9.57031 38.0078C9.57031 40.582 10.8594 42.9609 13.0156 44.3672L13.6836 44.8008H8.89844C8.07813 44.8008 7.28125 44.914 6.52734 45.125L6.51172 34.7187C6.50781 32.164 7.73828 29.7344 9.80078 28.2187ZM69.043 54.5312C63.3086 56.6367 57.3008 57.707 51.1914 57.707H8.89844C6.6875 57.707 4.89062 55.9101 4.89062 53.6992C4.89062 51.4883 6.6875 49.6914 8.89844 49.6914H21.3516C25.3906 49.6914 29.4375 50.1484 33.3789 51.0429L36.7461 51.8086C43.2227 53.2812 49.8516 53.6367 56.4492 52.8711L65.6602 51.8008C66.5234 51.7031 67.3555 51.5547 68.1602 51.4101L68.2148 51.4023C68.6797 51.3203 69.1602 51.4531 69.5312 51.7656C69.7461 51.9453 70.1094 52.3476 70.1094 53.0078C70.1094 53.6875 69.6797 54.3008 69.043 54.5312Z" fill="#0700A0"/>
<path d="M89.4897 17.5653C89.4215 16.8778 89.1289 16.3437 88.6119 15.9631C88.0948 15.5824 87.3931 15.392 86.5067 15.392C85.9045 15.392 85.396 15.4773 84.9812 15.6477C84.5664 15.8125 84.2482 16.0426 84.0266 16.3381C83.8107 16.6335 83.7028 16.9688 83.7028 17.3438C83.6914 17.6562 83.7567 17.929 83.8988 18.1619C84.0465 18.3949 84.2482 18.5966 84.5039 18.767C84.7596 18.9318 85.055 19.0767 85.3903 19.2017C85.7255 19.321 86.0835 19.4233 86.4641 19.5085L88.0323 19.8835C88.7937 20.054 89.4925 20.2812 90.1289 20.5653C90.7653 20.8494 91.3164 21.1989 91.7823 21.6136C92.2482 22.0284 92.609 22.517 92.8647 23.0795C93.1261 23.642 93.2596 24.2869 93.2653 25.0142C93.2596 26.0824 92.9869 27.0085 92.4471 27.7926C91.913 28.571 91.1403 29.1761 90.1289 29.608C89.1232 30.0341 87.9102 30.2472 86.4897 30.2472C85.0806 30.2472 83.8533 30.0312 82.8079 29.5994C81.7681 29.1676 80.9556 28.5284 80.3704 27.6818C79.7908 26.8295 79.4869 25.7756 79.4585 24.5199H83.0295C83.0692 25.1051 83.2369 25.5937 83.5323 25.9858C83.8335 26.3722 84.234 26.6648 84.734 26.8636C85.2397 27.0568 85.8107 27.1534 86.4471 27.1534C87.0721 27.1534 87.6147 27.0625 88.0749 26.8807C88.5408 26.6989 88.9016 26.446 89.1573 26.1222C89.413 25.7983 89.5408 25.4261 89.5408 25.0057C89.5408 24.6136 89.4244 24.2841 89.1914 24.017C88.9641 23.75 88.6289 23.5227 88.1857 23.3352C87.7482 23.1477 87.2113 22.9773 86.5749 22.8239L84.6744 22.3466C83.2028 21.9886 82.0408 21.429 81.1886 20.6676C80.3363 19.9062 79.913 18.8807 79.9187 17.5909C79.913 16.5341 80.1942 15.6108 80.7624 14.821C81.3363 14.0312 82.1232 13.4148 83.1232 12.9716C84.1232 12.5284 85.2596 12.3068 86.5323 12.3068C87.8278 12.3068 88.9585 12.5284 89.9244 12.9716C90.896 13.4148 91.6516 14.0312 92.1914 14.821C92.7312 15.6108 93.0096 16.5256 93.0266 17.5653H89.4897ZM99.31 22.4318V30H95.6793V16.9091H99.1396V19.2188H99.293C99.5827 18.4574 100.069 17.8551 100.75 17.4119C101.432 16.9631 102.259 16.7386 103.23 16.7386C104.14 16.7386 104.932 16.9375 105.608 17.3352C106.284 17.733 106.81 18.3011 107.185 19.0398C107.56 19.7727 107.748 20.6477 107.748 21.6648V30H104.117V22.3125C104.123 21.5114 103.918 20.8864 103.503 20.4375C103.088 19.983 102.517 19.7557 101.79 19.7557C101.301 19.7557 100.87 19.8608 100.495 20.071C100.125 20.2812 99.8356 20.5881 99.6254 20.9915C99.4208 21.3892 99.3157 21.8693 99.31 22.4318ZM116.575 30.2557C115.228 30.2557 114.069 29.983 113.098 29.4375C112.132 28.8864 111.387 28.108 110.865 27.1023C110.342 26.0909 110.081 24.8949 110.081 23.5142C110.081 22.1676 110.342 20.9858 110.865 19.9688C111.387 18.9517 112.123 18.1591 113.072 17.5909C114.027 17.0227 115.146 16.7386 116.43 16.7386C117.294 16.7386 118.098 16.8778 118.842 17.1562C119.592 17.429 120.245 17.8409 120.802 18.392C121.365 18.9432 121.802 19.6364 122.115 20.4716C122.427 21.3011 122.583 22.2727 122.583 23.3864V24.3835H111.529V22.1335H119.166C119.166 21.6108 119.052 21.1477 118.825 20.7443C118.598 20.3409 118.282 20.0256 117.879 19.7983C117.481 19.5653 117.018 19.4489 116.49 19.4489C115.939 19.4489 115.45 19.5767 115.024 19.8324C114.603 20.0824 114.274 20.4205 114.035 20.8466C113.797 21.267 113.674 21.7358 113.669 22.2528V24.392C113.669 25.0398 113.788 25.5994 114.027 26.071C114.271 26.5426 114.615 26.9062 115.058 27.1619C115.501 27.4176 116.027 27.5455 116.635 27.5455C117.038 27.5455 117.407 27.4886 117.743 27.375C118.078 27.2614 118.365 27.0909 118.603 26.8636C118.842 26.6364 119.024 26.358 119.149 26.0284L122.507 26.25C122.336 27.0568 121.987 27.7614 121.458 28.3636C120.936 28.9602 120.26 29.4261 119.43 29.7614C118.606 30.0909 117.654 30.2557 116.575 30.2557ZM128.686 30.2472C127.85 30.2472 127.106 30.1023 126.453 29.8125C125.799 29.517 125.282 29.0824 124.902 28.5085C124.527 27.929 124.339 27.2074 124.339 26.3438C124.339 25.6165 124.473 25.0057 124.74 24.5114C125.007 24.017 125.37 23.6193 125.831 23.3182C126.291 23.017 126.814 22.7898 127.399 22.6364C127.99 22.483 128.609 22.375 129.257 22.3125C130.018 22.233 130.632 22.1591 131.098 22.0909C131.564 22.017 131.902 21.9091 132.112 21.767C132.322 21.625 132.427 21.4148 132.427 21.1364V21.0852C132.427 20.5455 132.257 20.1278 131.916 19.8324C131.581 19.5369 131.103 19.3892 130.484 19.3892C129.831 19.3892 129.311 19.5341 128.924 19.8239C128.538 20.108 128.282 20.4659 128.157 20.8977L124.799 20.625C124.97 19.8295 125.305 19.142 125.805 18.5625C126.305 17.9773 126.95 17.5284 127.74 17.2159C128.535 16.8977 129.456 16.7386 130.501 16.7386C131.228 16.7386 131.924 16.8239 132.589 16.9943C133.26 17.1648 133.853 17.429 134.37 17.7869C134.893 18.1449 135.305 18.6051 135.606 19.1676C135.907 19.7244 136.058 20.392 136.058 21.1705V30H132.615V28.1847H132.512C132.302 28.5938 132.021 28.9545 131.669 29.267C131.316 29.5739 130.893 29.8153 130.399 29.9915C129.904 30.1619 129.333 30.2472 128.686 30.2472ZM129.725 27.7415C130.26 27.7415 130.731 27.6364 131.14 27.4261C131.549 27.2102 131.87 26.9205 132.103 26.5568C132.336 26.1932 132.453 25.7812 132.453 25.321V23.9318C132.339 24.0057 132.183 24.0739 131.984 24.1364C131.791 24.1932 131.572 24.2472 131.328 24.2983C131.083 24.3437 130.839 24.3864 130.595 24.4261C130.35 24.4602 130.129 24.4915 129.93 24.5199C129.504 24.5824 129.132 24.6818 128.814 24.8182C128.495 24.9545 128.248 25.1392 128.072 25.3722C127.896 25.5994 127.808 25.8835 127.808 26.2244C127.808 26.7188 127.987 27.0966 128.345 27.358C128.708 27.6136 129.169 27.7415 129.725 27.7415ZM142.164 26.233L142.173 21.8778H142.701L146.895 16.9091H151.062L145.429 23.4886H144.568L142.164 26.233ZM138.875 30V12.5455H142.505V30H138.875ZM147.056 30L143.204 24.2983L145.625 21.733L151.309 30H147.056ZM158.27 30.2557C156.924 30.2557 155.765 29.983 154.793 29.4375C153.827 28.8864 153.083 28.108 152.56 27.1023C152.037 26.0909 151.776 24.8949 151.776 23.5142C151.776 22.1676 152.037 20.9858 152.56 19.9688C153.083 18.9517 153.819 18.1591 154.767 17.5909C155.722 17.0227 156.841 16.7386 158.125 16.7386C158.989 16.7386 159.793 16.8778 160.537 17.1562C161.287 17.429 161.941 17.8409 162.498 18.392C163.06 18.9432 163.498 19.6364 163.81 20.4716C164.123 21.3011 164.279 22.2727 164.279 23.3864V24.3835H153.225V22.1335H160.861C160.861 21.6108 160.748 21.1477 160.52 20.7443C160.293 20.3409 159.978 20.0256 159.574 19.7983C159.176 19.5653 158.713 19.4489 158.185 19.4489C157.634 19.4489 157.145 19.5767 156.719 19.8324C156.299 20.0824 155.969 20.4205 155.73 20.8466C155.492 21.267 155.37 21.7358 155.364 22.2528V24.392C155.364 25.0398 155.483 25.5994 155.722 26.071C155.966 26.5426 156.31 26.9062 156.753 27.1619C157.196 27.4176 157.722 27.5455 158.33 27.5455C158.733 27.5455 159.103 27.4886 159.438 27.375C159.773 27.2614 160.06 27.0909 160.299 26.8636C160.537 26.6364 160.719 26.358 160.844 26.0284L164.202 26.25C164.032 27.0568 163.682 27.7614 163.154 28.3636C162.631 28.9602 161.955 29.4261 161.125 29.7614C160.301 30.0909 159.35 30.2557 158.27 30.2557ZM166.648 30V16.9091H170.168V19.1932H170.304C170.543 18.3807 170.944 17.767 171.506 17.3523C172.069 16.9318 172.716 16.7216 173.449 16.7216C173.631 16.7216 173.827 16.733 174.037 16.7557C174.248 16.7784 174.432 16.8097 174.591 16.8494V20.071C174.421 20.0199 174.185 19.9744 173.884 19.9347C173.583 19.8949 173.307 19.875 173.057 19.875C172.523 19.875 172.046 19.9915 171.625 20.2244C171.211 20.4517 170.881 20.7699 170.637 21.179C170.398 21.5881 170.279 22.0597 170.279 22.5938V30H166.648ZM187.36 20.642L184.037 20.8466C183.98 20.5625 183.858 20.3068 183.67 20.0795C183.483 19.8466 183.235 19.6619 182.929 19.5256C182.627 19.3835 182.267 19.3125 181.846 19.3125C181.284 19.3125 180.809 19.4318 180.423 19.6705C180.037 19.9034 179.843 20.2159 179.843 20.608C179.843 20.9205 179.968 21.1847 180.218 21.4006C180.468 21.6165 180.897 21.7898 181.505 21.9205L183.875 22.3977C185.147 22.6591 186.096 23.0795 186.721 23.6591C187.346 24.2386 187.659 25 187.659 25.9432C187.659 26.8011 187.406 27.554 186.9 28.2017C186.4 28.8494 185.713 29.3551 184.838 29.7188C183.968 30.0767 182.966 30.2557 181.829 30.2557C180.096 30.2557 178.716 29.8949 177.687 29.1733C176.664 28.446 176.065 27.4574 175.889 26.2074L179.46 26.0199C179.568 26.5483 179.829 26.9517 180.244 27.2301C180.659 27.5028 181.19 27.6392 181.838 27.6392C182.474 27.6392 182.985 27.517 183.372 27.2727C183.764 27.0227 183.963 26.7017 183.968 26.3097C183.963 25.9801 183.824 25.7102 183.551 25.5C183.278 25.2841 182.858 25.1193 182.289 25.0057L180.022 24.554C178.744 24.2983 177.792 23.8551 177.167 23.2244C176.548 22.5937 176.238 21.7898 176.238 20.8125C176.238 19.9716 176.466 19.2472 176.92 18.6392C177.38 18.0312 178.025 17.5625 178.855 17.233C179.69 16.9034 180.667 16.7386 181.787 16.7386C183.44 16.7386 184.741 17.0881 185.69 17.7869C186.645 18.4858 187.201 19.4375 187.36 20.642ZM112.892 46.5653C112.824 45.8778 112.531 45.3437 112.014 44.9631C111.497 44.5824 110.795 44.392 109.909 44.392C109.307 44.392 108.798 44.4773 108.384 44.6477C107.969 44.8125 107.651 45.0426 107.429 45.3381C107.213 45.6335 107.105 45.9688 107.105 46.3438C107.094 46.6562 107.159 46.929 107.301 47.1619C107.449 47.3949 107.651 47.5966 107.906 47.767C108.162 47.9318 108.457 48.0767 108.793 48.2017C109.128 48.321 109.486 48.4233 109.866 48.5085L111.435 48.8835C112.196 49.054 112.895 49.2812 113.531 49.5653C114.168 49.8494 114.719 50.1989 115.185 50.6136C115.651 51.0284 116.011 51.517 116.267 52.0795C116.528 52.642 116.662 53.2869 116.668 54.0142C116.662 55.0824 116.389 56.0085 115.849 56.7926C115.315 57.571 114.543 58.1761 113.531 58.608C112.526 59.0341 111.313 59.2472 109.892 59.2472C108.483 59.2472 107.256 59.0312 106.21 58.5994C105.17 58.1676 104.358 57.5284 103.773 56.6818C103.193 55.8295 102.889 54.7756 102.861 53.5199H106.432C106.472 54.1051 106.639 54.5937 106.935 54.9858C107.236 55.3722 107.636 55.6648 108.136 55.8636C108.642 56.0568 109.213 56.1534 109.849 56.1534C110.474 56.1534 111.017 56.0625 111.477 55.8807C111.943 55.6989 112.304 55.446 112.56 55.1222C112.815 54.7983 112.943 54.4261 112.943 54.0057C112.943 53.6136 112.827 53.2841 112.594 53.017C112.366 52.75 112.031 52.5227 111.588 52.3352C111.151 52.1477 110.614 51.9773 109.977 51.8239L108.077 51.3466C106.605 50.9886 105.443 50.429 104.591 49.6676C103.739 48.9062 103.315 47.8807 103.321 46.5909C103.315 45.5341 103.597 44.6108 104.165 43.821C104.739 43.0312 105.526 42.4148 106.526 41.9716C107.526 41.5284 108.662 41.3068 109.935 41.3068C111.23 41.3068 112.361 41.5284 113.327 41.9716C114.298 42.4148 115.054 43.0312 115.594 43.821C116.134 44.6108 116.412 45.5256 116.429 46.5653H112.892ZM126.045 45.9091V48.6364H118.161V45.9091H126.045ZM119.951 42.7727H123.582V54.9773C123.582 55.3125 123.633 55.5739 123.735 55.7614C123.837 55.9432 123.979 56.071 124.161 56.1449C124.349 56.2187 124.565 56.2557 124.809 56.2557C124.979 56.2557 125.15 56.2415 125.32 56.2131C125.491 56.179 125.621 56.1534 125.712 56.1364L126.283 58.8381C126.102 58.8949 125.846 58.9602 125.516 59.0341C125.187 59.1136 124.786 59.1619 124.315 59.179C123.44 59.2131 122.673 59.0966 122.013 58.8295C121.36 58.5625 120.852 58.1477 120.488 57.5852C120.124 57.0227 119.945 56.3125 119.951 55.4545V42.7727ZM134.184 59.2557C132.86 59.2557 131.715 58.9744 130.749 58.4119C129.789 57.8437 129.048 57.054 128.525 56.0426C128.002 55.0256 127.741 53.8466 127.741 52.5057C127.741 51.1534 128.002 49.9716 128.525 48.9602C129.048 47.9432 129.789 47.1534 130.749 46.5909C131.715 46.0227 132.86 45.7386 134.184 45.7386C135.508 45.7386 136.65 46.0227 137.61 46.5909C138.576 47.1534 139.32 47.9432 139.843 48.9602C140.366 49.9716 140.627 51.1534 140.627 52.5057C140.627 53.8466 140.366 55.0256 139.843 56.0426C139.32 57.054 138.576 57.8437 137.61 58.4119C136.65 58.9744 135.508 59.2557 134.184 59.2557ZM134.201 56.4432C134.803 56.4432 135.306 56.2727 135.71 55.9318C136.113 55.5852 136.417 55.1136 136.621 54.517C136.832 53.9205 136.937 53.2415 136.937 52.4801C136.937 51.7188 136.832 51.0398 136.621 50.4432C136.417 49.8466 136.113 49.375 135.71 49.0284C135.306 48.6818 134.803 48.5085 134.201 48.5085C133.593 48.5085 133.082 48.6818 132.667 49.0284C132.258 49.375 131.948 49.8466 131.738 50.4432C131.533 51.0398 131.431 51.7188 131.431 52.4801C131.431 53.2415 131.533 53.9205 131.738 54.517C131.948 55.1136 132.258 55.5852 132.667 55.9318C133.082 56.2727 133.593 56.4432 134.201 56.4432ZM142.988 59V45.9091H146.508V48.1932H146.644C146.883 47.3807 147.283 46.767 147.846 46.3523C148.408 45.9318 149.056 45.7216 149.789 45.7216C149.971 45.7216 150.167 45.733 150.377 45.7557C150.587 45.7784 150.772 45.8097 150.931 45.8494V49.071C150.761 49.0199 150.525 48.9744 150.224 48.9347C149.923 48.8949 149.647 48.875 149.397 48.875C148.863 48.875 148.386 48.9915 147.965 49.2244C147.55 49.4517 147.221 49.7699 146.977 50.179C146.738 50.5881 146.619 51.0597 146.619 51.5938V59H142.988ZM158.165 59.2557C156.818 59.2557 155.659 58.983 154.688 58.4375C153.722 57.8864 152.977 57.108 152.455 56.1023C151.932 55.0909 151.67 53.8949 151.67 52.5142C151.67 51.1676 151.932 49.9858 152.455 48.9688C152.977 47.9517 153.713 47.1591 154.662 46.5909C155.616 46.0227 156.736 45.7386 158.02 45.7386C158.884 45.7386 159.688 45.8778 160.432 46.1562C161.182 46.429 161.835 46.8409 162.392 47.392C162.955 47.9432 163.392 48.6364 163.705 49.4716C164.017 50.3011 164.173 51.2727 164.173 52.3864V53.3835H153.119V51.1335H160.756C160.756 50.6108 160.642 50.1477 160.415 49.7443C160.188 49.3409 159.872 49.0256 159.469 48.7983C159.071 48.5653 158.608 48.4489 158.08 48.4489C157.528 48.4489 157.04 48.5767 156.614 48.8324C156.193 49.0824 155.864 49.4205 155.625 49.8466C155.386 50.267 155.264 50.7358 155.259 51.2528V53.392C155.259 54.0398 155.378 54.5994 155.616 55.071C155.861 55.5426 156.205 55.9062 156.648 56.1619C157.091 56.4176 157.616 56.5455 158.224 56.5455C158.628 56.5455 158.997 56.4886 159.332 56.375C159.668 56.2614 159.955 56.0909 160.193 55.8636C160.432 55.6364 160.614 55.358 160.739 55.0284L164.097 55.25C163.926 56.0568 163.577 56.7614 163.048 57.3636C162.526 57.9602 161.849 58.4261 161.02 58.7614C160.196 59.0909 159.244 59.2557 158.165 59.2557Z" fill="#0700A0"/>
</svg>
