<?xml version="1.0" encoding="iso-8859-1"?>
<!-- Generator: Adobe Illustrator 19.0.0, SVG Export Plug-In . SVG Version: 6.00 Build 0)  -->
<svg version="1.1" id="Layer_1" xmlns="http://www.w3.org/2000/svg" xmlns:xlink="http://www.w3.org/1999/xlink" x="0px" y="0px"
	 viewBox="0 0 512 512" style="enable-background:new 0 0 512 512;" xml:space="preserve">
<g>
	<g>
		<path d="M499.632,331.077c1.604-9.046,1.859-21.635-4.423-34.046c-7.753-15.315-22.803-25.553-44.731-30.425
			c-64.079-14.239-123.982-42.829-164.348-78.437c-4.03-3.555-8.32-7.649-12.826-12.225l7.388-5.054l-51.157-74.789l-14.293,9.776
			c-0.163-0.221-0.329-0.443-0.492-0.664c-16.417-22.365-47.965-27.222-70.326-10.823l-97.274,71.335
			c-22.638,16.602-36.128,43.273-36.085,71.346l0.144,94.424C4.162,341.413,0,353.519,0,366.586c0,33.492,27.247,60.74,60.739,60.74
			h288.727c45.647,0,90.52-7.974,133.374-23.699C500.281,397.226,512,380.442,512,361.864
			C512,350.288,507.542,339.31,499.632,331.077z M258.558,208.206l-25.177,40.895l28.435,17.506l22.742-36.937
			c3.706,2.719,7.501,5.395,11.402,8.012l-22.522,35.633l28.226,17.84l22.862-36.171c4.368,2.393,8.811,4.727,13.333,6.992
			l-22.544,35.977l28.295,17.731l24.943-39.806c23.761,9.69,48.938,17.604,74.683,23.325c7.977,1.773,18.287,5.426,22.106,12.762
			c0.896,1.72,1.388,3.562,1.634,5.395c-2.366,0.032-4.744,0.25-7.111,0.669l-0.371,0.066c-5.247,0.927-10.203,1.803-15.102,2.372
			l-62.89,7.305c-41.266,4.791-82.731,2.553-123.241-6.653l-22.999-5.227c-26.408-6.002-53.461-9.329-80.544-9.933l-47.632-31.053
			c-5.236-3.413-8.361-9.181-8.361-15.431c0-7.504,4.487-14.194,11.429-17.042l23.187-9.512l18.064,26.408l93.944-64.259
			C249.917,199.855,254.328,204.241,258.558,208.206z M220.828,142.514l13.453,19.667l-74.17,50.732l-13.452-19.667L220.828,142.514
			z M66.898,192.651l97.274-71.335c7.442-5.457,17.908-3.899,23.481,3.434l-87.407,59.788l13.815,20.197l-16.583,6.803
			c-19.528,8.012-32.146,26.828-32.146,47.934c0,17.577,8.791,33.803,23.515,43.403l4.558,2.972H60.739
			c-5.601,0-11.02,0.778-16.174,2.204l-0.108-71.031C44.43,219.562,52.821,202.976,66.898,192.651z M471.335,372.28
			c-39.157,14.369-80.159,21.655-121.869,21.655H60.739c-15.079,0-27.347-12.268-27.347-27.349s12.268-27.347,27.347-27.347h85.023
			c27.581,0,55.203,3.1,82.096,9.212l22.999,5.227c44.21,10.046,89.459,12.489,134.494,7.259l62.891-7.305
			c5.882-0.683,11.566-1.687,17.061-2.659l0.37-0.066c3.175-0.562,6.455,0.339,8.997,2.471c1.471,1.234,3.94,3.978,3.94,8.483
			C478.609,366.496,475.686,370.683,471.335,372.28z"/>
	</g>
</g>
<g>
</g>
<g>
</g>
<g>
</g>
<g>
</g>
<g>
</g>
<g>
</g>
<g>
</g>
<g>
</g>
<g>
</g>
<g>
</g>
<g>
</g>
<g>
</g>
<g>
</g>
<g>
</g>
<g>
</g>
</svg>
